<?xml version="1.0" standalone="no"?>
<svg version="1.0" xmlns="http://www.w3.org/2000/svg"
 width="512.000000pt" height="512.000000pt" viewBox="0 0 512.000000 512.000000"
 preserveAspectRatio="xMidYMid meet">

<g transform="translate(0.000000,512.000000) scale(0.100000,-0.100000)"
fill="#000000" stroke="none">
<path d="M4070 5113 c-149 -23 -310 -142 -384 -283 -47 -89 -66 -167 -66 -270
0 -124 31 -220 98 -309 17 -23 22 -36 14 -39 -38 -12 -172 -112 -235 -174
-115 -114 -183 -225 -237 -386 -34 -104 -50 -233 -50 -416 l0 -135 -65 49
c-36 27 -85 61 -110 75 -25 15 -45 29 -45 32 0 2 11 19 24 36 82 110 115 273
85 419 -6 29 -29 91 -51 136 -90 189 -276 306 -488 306 -212 0 -398 -117 -489
-306 -49 -103 -65 -184 -58 -291 6 -94 32 -173 83 -249 19 -28 33 -52 32 -54
-2 -1 -37 -25 -79 -52 -217 -142 -370 -362 -420 -607 -14 -69 -19 -134 -19
-277 l0 -188 -72 56 c-40 31 -91 65 -113 76 -22 11 -41 22 -43 23 -1 1 13 25
32 53 58 87 79 154 84 273 3 81 0 121 -13 165 -73 253 -280 414 -532 414 -152
0 -276 -52 -384 -161 -183 -183 -219 -478 -84 -679 19 -29 35 -55 35 -59 -1
-3 -39 -31 -86 -61 -148 -94 -282 -252 -351 -411 -58 -134 -75 -216 -80 -402
-6 -186 3 -259 44 -345 36 -77 130 -173 208 -214 l65 -33 0 -349 c0 -329 1
-352 20 -391 13 -27 34 -49 59 -63 l40 -23 525 3 c515 3 525 3 553 24 15 12
37 36 48 55 19 32 20 55 23 390 l3 355 52 26 c145 71 246 222 263 394 17 166
24 16 24 -531 0 -655 -1 -641 61 -686 l34 -24 535 0 535 0 34 24 c62 45 61 31
61 683 l0 593 65 34 c153 79 255 240 255 402 0 32 4 59 10 59 6 0 11 -302 12
-843 3 -821 3 -843 23 -876 11 -19 33 -43 48 -55 28 -21 38 -21 553 -24 l525
-3 40 23 c25 14 46 36 59 63 20 40 20 62 20 873 l0 831 58 28 c71 34 171 131
206 201 56 110 56 113 56 793 0 689 -2 721 -60 882 -75 205 -234 389 -445 513
-17 10 -16 14 18 70 105 170 112 360 20 544 -107 212 -343 331 -583 293z m203
-318 c48 -23 92 -66 118 -116 59 -118 12 -270 -104 -332 -33 -17 -59 -22 -123
-22 -72 0 -86 3 -130 30 -70 44 -107 108 -112 195 -5 83 8 124 54 179 35 40
73 66 124 82 39 13 131 5 173 -16z m42 -800 c178 -37 353 -170 428 -325 73
-151 71 -124 75 -830 l3 -635 -24 -45 c-27 -52 -84 -90 -136 -90 -54 0 -114
-34 -139 -79 l-22 -39 0 -826 0 -826 -335 0 -335 0 0 833 c0 817 0 833 -20
865 -23 38 -88 71 -138 72 -67 0 -132 57 -152 131 -8 28 -10 232 -8 652 4 601
5 613 27 687 56 185 166 321 322 398 47 24 115 49 150 57 85 18 217 18 304 0z
m-1652 -162 c48 -19 120 -99 135 -151 37 -121 -14 -244 -123 -297 -170 -84
-365 32 -365 218 0 62 20 114 63 163 78 88 177 111 290 67z m72 -808 c176 -46
329 -169 403 -325 68 -144 72 -177 72 -613 0 -383 0 -384 -23 -418 -32 -48
-78 -75 -136 -82 -64 -8 -103 -28 -133 -69 l-23 -33 -3 -592 -3 -593 -329 0
-329 0 -3 593 -3 592 -23 33 c-30 41 -69 61 -133 69 -58 7 -104 34 -136 82
-23 34 -23 35 -23 420 0 438 5 475 70 608 87 176 246 296 449 339 80 16 221
12 306 -11z m-1703 -147 c51 -15 126 -82 149 -133 23 -50 25 -152 3 -203 -19
-47 -68 -98 -119 -125 -29 -16 -58 -21 -110 -22 -127 0 -221 73 -245 192 -40
192 132 348 322 291z m98 -814 c187 -56 335 -184 415 -359 49 -107 60 -163 60
-330 0 -139 -2 -153 -23 -187 -31 -50 -75 -75 -152 -87 -57 -9 -70 -16 -102
-50 l-38 -40 0 -356 0 -355 -335 0 -335 0 0 343 c0 306 -2 346 -18 377 -23 46
-70 76 -131 83 -65 8 -103 28 -138 74 -27 35 -28 41 -31 176 -4 169 12 256 69
373 88 181 259 309 470 354 61 13 223 4 289 -16z"/>
</g>
</svg>
